<?xml version="1.0" encoding="utf-8"?>
<!-- Generator: Adobe Illustrator 22.1.0, SVG Export Plug-In . SVG Version: 6.00 Build 0)  -->
<svg version="1.1" id="图层_1" xmlns="http://www.w3.org/2000/svg" xmlns:xlink="http://www.w3.org/1999/xlink" x="0px" y="0px"
	 viewBox="0 0 256 256" style="enable-background:new 0 0 256 256;" xml:space="preserve">
<style type="text/css">
	.st0{fill:#FFFFFF;}
	.st1{fill:#999999;}
	.st2{fill:none;stroke:#000000;stroke-miterlimit:10;}
	.st3{font-family:'AdobeSongStd-Light-GBpc-EUC-H';}
	.st4{font-size:18px;}
</style>
<g id="XMLID_1_">
	<g>
		<path class="st0" d="M170,79.5c32.3,0,58.5,19.7,58.5,44s-26.2,44-58.5,44c-17.3,0-32.8-5.6-43.6-14.6
			c13.4-7.5,22.1-19.2,22.1-32.4c0-11.7-6.8-22.2-17.7-29.7C141.2,83.8,154.9,79.5,170,79.5z"/>
		<path class="st1" d="M130.8,90.8c10.9,7.5,17.7,18,17.7,29.7c0,13.2-8.6,24.9-22.1,32.4c-9.3-7.8-14.9-18.1-14.9-29.4
			C111.5,110.5,119,98.9,130.8,90.8z"/>
		<path class="st0" d="M130.8,90.8c-11.9,8.1-19.3,19.7-19.3,32.7c0,11.3,5.7,21.6,14.9,29.4c-9.6,5.4-21.8,8.6-34.9,8.6
			c-31.5,0-57-18.4-57-41s25.5-41,57-41C106.8,79.5,120.6,83.8,130.8,90.8z"/>
	</g>
	<g>
		<path class="st2" d="M126.4,152.9c-9.6,5.4-21.8,8.6-34.9,8.6c-31.5,0-57-18.4-57-41s25.5-41,57-41c15.3,0,29.1,4.3,39.3,11.3"/>
		<path class="st2" d="M130.8,90.8c-11.9,8.1-19.3,19.7-19.3,32.7c0,11.3,5.7,21.6,14.9,29.4c10.7,9,26.3,14.6,43.6,14.6
			c32.3,0,58.5-19.7,58.5-44s-26.2-44-58.5-44C154.9,79.5,141.2,83.8,130.8,90.8z"/>
	</g>
</g>
<text transform="matrix(1 0 0 1 74.438 113.71)" class="st3 st4">A</text>
<text transform="matrix(1 0 0 1 172.6631 117.8521)" class="st3 st4">B</text>
</svg>
